# xmcd
#
# Track frame offsets:
#	150
#	13475
#	32602
#	47205
#	70308
#	84767
#	101618
#	117880
#	135467
#	146654
#	166396
#
# Disc length: 2420 seconds
#
# Revision: 0
# Processed by: cddbd v1.5PL3 Copyright (c) Steve Scherf et al.
# Submitted via: dBpowerAMP V4.0
#
DISCID=9209720b
DTITLE=Gurf Morlix - Road To Titicaca
DYEAR=2000
DGENRE=Country
TTITLE0=Wild Things
TTITLE1=You Don't Know Me
TTITLE2=Robin Sings At Midnight
TTITLE3=Rainin' On Me
TTITLE4=Rock Bottom
TTITLE5=Feel Free
TTITLE6=Leap Of Faith
TTITLE7=I Blunder On
TTITLE8=Dan Blocker
TTITLE9=Greatest Show On Earth
TTITLE10=Fallin' Off The Face Of The World
EXTD=
EXTT0=
EXTT1=
EXTT2=
EXTT3=
EXTT4=
EXTT5=
EXTT6=
EXTT7=
EXTT8=
EXTT9=
EXTT10=
PLAYORDER=
